<?xml version="1.0" encoding="UTF-8" standalone="no"?>
<!-- Generator: Adobe Illustrator 19.1.0, SVG Export Plug-In . SVG Version: 6.00 Build 0)  -->

<svg
   version="1.1"
   id="Ebene_1"
   x="0px"
   y="0px"
   viewBox="0 0 16 16"
   style="enable-background:new 0 0 16 16;"
   xml:space="preserve"
   sodipodi:docname="icon.svg"
   inkscape:version="1.4 (86a8ad7, 2024-10-11)"
   inkscape:export-filename="icon.png"
   inkscape:export-xdpi="96"
   inkscape:export-ydpi="96"
   xmlns:inkscape="http://www.inkscape.org/namespaces/inkscape"
   xmlns:sodipodi="http://sodipodi.sourceforge.net/DTD/sodipodi-0.dtd"
   xmlns="http://www.w3.org/2000/svg"
   xmlns:svg="http://www.w3.org/2000/svg"><defs
   id="defs4" /><sodipodi:namedview
   id="namedview4"
   pagecolor="#505050"
   bordercolor="#ffffff"
   borderopacity="1"
   inkscape:showpageshadow="0"
   inkscape:pageopacity="0"
   inkscape:pagecheckerboard="1"
   inkscape:deskcolor="#d1d1d1"
   inkscape:zoom="28.96875"
   inkscape:cx="19.590076"
   inkscape:cy="12.703344"
   inkscape:window-width="1918"
   inkscape:window-height="1120"
   inkscape:window-x="1913"
   inkscape:window-y="0"
   inkscape:window-maximized="0"
   inkscape:current-layer="Ebene_1" />
<g
   id="g3">
	<path
   d="M1,10.1c2.8,0,3.9-0.5,4.5-1.1C6,8.4,6.1,6.5,6.1,6C4.4,6.8,2.7,7.2,1,7.2V10.1L1,10.1z"
   id="path1" />
	<path
   d="M1,14.9L1,14.9c2.8,0,3.9-0.5,4.5-1.1c0.5-0.6,0.6-2.5,0.6-3C4.4,11.6,2.7,12,1,12V14.9z"
   id="path2" />
	<path
   d="M6.1,3.2C6.1,2,3.8,1.1,1,1.1v4.3C3.8,5.3,6.1,4.4,6.1,3.2z"
   id="path3" />
</g>

<text
   xml:space="preserve"
   style="font-size:11.257px;line-height:1.25;font-family:sans-serif;stroke-width:1.05534"
   x="6.7754312"
   y="12.276571"
   id="text5"
   transform="scale(1.0230469,0.97747228)"><tspan
     sodipodi:role="line"
     id="tspan5"
     x="6.7754312"
     y="12.276571"
     style="font-style:normal;font-variant:normal;font-weight:bold;font-stretch:normal;font-family:sans-serif;-inkscape-font-specification:'sans-serif Bold';stroke-width:1.05534">F</tspan></text></svg>
